<?xml version="1.0" encoding="UTF-8" standalone="no"?>
<!DOCTYPE svg PUBLIC "-//W3C//DTD SVG 1.1//EN"
 "http://www.w3.org/Graphics/SVG/1.1/DTD/svg11.dtd">
<!-- Generated by graphviz version 3.0.0 (20220226.1711)
 -->
<!-- Title: dependencies Pages: 1 -->
<svg width="808pt" height="247pt"
 viewBox="0.00 0.00 808.00 246.80" xmlns="http://www.w3.org/2000/svg" xmlns:xlink="http://www.w3.org/1999/xlink">
<g id="graph0" class="graph" transform="scale(1 1) rotate(0) translate(4 242.8)">
<title>dependencies</title>
<polygon fill="white" stroke="transparent" points="-4,4 -4,-242.8 804,-242.8 804,4 -4,4"/>
<text text-anchor="middle" x="400" y="-8.2" font-family="sans-serif" font-size="14.00">dependencies</text>
<g id="clust1" class="cluster">
<title>cluster_AppModule</title>
<polygon fill="none" stroke="black" stroke-dasharray="1,5" points="8,-32.8 8,-230.8 792,-230.8 792,-32.8 8,-32.8"/>
</g>
<g id="clust9" class="cluster">
<title>cluster_AppModule_bootstrap</title>
<polygon fill="none" stroke="black" points="361,-170.8 361,-222.8 485,-222.8 485,-170.8 361,-170.8"/>
</g>
<g id="clust7" class="cluster">
<title>cluster_AppModule_imports</title>
<polygon fill="none" stroke="black" points="640,-40.8 640,-92.8 784,-92.8 784,-40.8 640,-40.8"/>
</g>
<g id="clust2" class="cluster">
<title>cluster_AppModule_declarations</title>
<polygon fill="none" stroke="black" points="16,-40.8 16,-92.8 632,-92.8 632,-40.8 16,-40.8"/>
</g>
<!-- AppComponent -->
<g id="node1" class="node">
<title>AppComponent</title>
<polygon fill="#ffffb3" stroke="black" points="623.94,-84.8 518.06,-84.8 518.06,-48.8 623.94,-48.8 623.94,-84.8"/>
<text text-anchor="middle" x="571" y="-62.6" font-family="Times,serif" font-size="14.00">AppComponent</text>
</g>
<!-- AppModule -->
<g id="node5" class="node">
<title>AppModule</title>
<polygon fill="#8dd3c7" stroke="black" points="464.66,-149.8 461.66,-153.8 440.66,-153.8 437.66,-149.8 381.34,-149.8 381.34,-113.8 464.66,-113.8 464.66,-149.8"/>
<text text-anchor="middle" x="423" y="-127.6" font-family="Times,serif" font-size="14.00">AppModule</text>
</g>
<!-- AppComponent&#45;&gt;AppModule -->
<g id="edge1" class="edge">
<title>AppComponent&#45;&gt;AppModule</title>
<path fill="none" stroke="black" d="M571,-84.82C571,-102.17 571,-125.8 571,-125.8 571,-125.8 475.01,-125.8 475.01,-125.8"/>
<polygon fill="black" stroke="black" points="475.02,-122.3 465.01,-125.8 475.01,-129.3 475.02,-122.3"/>
</g>
<!-- SearchCacheComponent -->
<g id="node2" class="node">
<title>SearchCacheComponent</title>
<polygon fill="#ffffb3" stroke="black" points="500.4,-84.8 345.6,-84.8 345.6,-48.8 500.4,-48.8 500.4,-84.8"/>
<text text-anchor="middle" x="423" y="-62.6" font-family="Times,serif" font-size="14.00">SearchCacheComponent</text>
</g>
<!-- SearchCacheComponent&#45;&gt;AppModule -->
<g id="edge2" class="edge">
<title>SearchCacheComponent&#45;&gt;AppModule</title>
<path fill="none" stroke="black" d="M423,-84.91C423,-84.91 423,-103.79 423,-103.79"/>
<polygon fill="black" stroke="black" points="419.5,-103.79 423,-113.79 426.5,-103.79 419.5,-103.79"/>
</g>
<!-- SearchUsersComponent -->
<g id="node3" class="node">
<title>SearchUsersComponent</title>
<polygon fill="#ffffb3" stroke="black" points="327.8,-84.8 176.2,-84.8 176.2,-48.8 327.8,-48.8 327.8,-84.8"/>
<text text-anchor="middle" x="252" y="-62.6" font-family="Times,serif" font-size="14.00">SearchUsersComponent</text>
</g>
<!-- SearchUsersComponent&#45;&gt;AppModule -->
<g id="edge3" class="edge">
<title>SearchUsersComponent&#45;&gt;AppModule</title>
<path fill="none" stroke="black" d="M252,-84.82C252,-102.17 252,-125.8 252,-125.8 252,-125.8 371.17,-125.8 371.17,-125.8"/>
<polygon fill="black" stroke="black" points="371.17,-129.3 381.17,-125.8 371.17,-122.3 371.17,-129.3"/>
</g>
<!-- UsersListComponent -->
<g id="node4" class="node">
<title>UsersListComponent</title>
<polygon fill="#ffffb3" stroke="black" points="158.49,-84.8 23.51,-84.8 23.51,-48.8 158.49,-48.8 158.49,-84.8"/>
<text text-anchor="middle" x="91" y="-62.6" font-family="Times,serif" font-size="14.00">UsersListComponent</text>
</g>
<!-- UsersListComponent&#45;&gt;AppModule -->
<g id="edge4" class="edge">
<title>UsersListComponent&#45;&gt;AppModule</title>
<path fill="none" stroke="black" d="M91,-85.08C91,-106.12 91,-137.8 91,-137.8 91,-137.8 371.29,-137.8 371.29,-137.8"/>
<polygon fill="black" stroke="black" points="371.29,-141.3 381.29,-137.8 371.29,-134.3 371.29,-141.3"/>
</g>
<!-- AppComponent  -->
<g id="node7" class="node">
<title>AppComponent </title>
<polygon fill="#80b1d3" stroke="black" points="477.44,-214.8 368.56,-214.8 368.56,-178.8 477.44,-178.8 477.44,-214.8"/>
<text text-anchor="middle" x="423" y="-192.6" font-family="Times,serif" font-size="14.00">AppComponent </text>
</g>
<!-- AppModule&#45;&gt;AppComponent  -->
<g id="edge6" class="edge">
<title>AppModule&#45;&gt;AppComponent </title>
<path fill="none" stroke="black" stroke-dasharray="1,5" d="M423,-149.91C423,-149.91 423,-168.79 423,-168.79"/>
<polygon fill="black" stroke="black" points="419.5,-168.79 423,-178.79 426.5,-168.79 419.5,-168.79"/>
</g>
<!-- AppRoutingModule -->
<g id="node6" class="node">
<title>AppRoutingModule</title>
<polygon fill="#8dd3c7" stroke="black" points="776.28,-84.8 773.28,-88.8 752.28,-88.8 749.28,-84.8 647.72,-84.8 647.72,-48.8 776.28,-48.8 776.28,-84.8"/>
<text text-anchor="middle" x="712" y="-62.6" font-family="Times,serif" font-size="14.00">AppRoutingModule</text>
</g>
<!-- AppRoutingModule&#45;&gt;AppModule -->
<g id="edge5" class="edge">
<title>AppRoutingModule&#45;&gt;AppModule</title>
<path fill="none" stroke="black" d="M712,-85.08C712,-106.12 712,-137.8 712,-137.8 712,-137.8 474.71,-137.8 474.71,-137.8"/>
<polygon fill="black" stroke="black" points="474.71,-134.3 464.71,-137.8 474.71,-141.3 474.71,-134.3"/>
</g>
</g>
</svg>
